<mxfile host="Electron" modified="2024-05-27T11:59:18.994Z" agent="Mozilla/5.0 (Macintosh; Intel Mac OS X 10_15_7) AppleWebKit/537.36 (KHTML, like Gecko) draw.io/24.4.8 Chrome/124.0.6367.207 Electron/30.0.6 Safari/537.36" etag="BFpe4meuo77ULNihCora" version="24.4.8" type="device" pages="2">
  <diagram name="four-layers-of-choice" id="SAM_tC9CIVqK7PkyQRDT">
    <mxGraphModel dx="1114" dy="941" grid="1" gridSize="10" guides="1" tooltips="1" connect="1" arrows="1" fold="1" page="1" pageScale="1" pageWidth="827" pageHeight="1169" math="0" shadow="0">
      <root>
        <mxCell id="0" />
        <mxCell id="1" parent="0" />
        <mxCell id="9Qbzj7xQOk-ZIAOEFLsu-1" value="Content Packs" style="rounded=0;whiteSpace=wrap;html=1;align=left;spacingLeft=14;fillColor=#ffe6cc;strokeColor=#d79b00;" vertex="1" parent="1">
          <mxGeometry x="230" y="310" width="540" height="60" as="geometry" />
        </mxCell>
        <mxCell id="9Qbzj7xQOk-ZIAOEFLsu-2" value="Connectors" style="rounded=0;whiteSpace=wrap;html=1;align=left;spacingLeft=14;fillColor=#fff2cc;strokeColor=#d6b656;" vertex="1" parent="1">
          <mxGeometry x="230" y="380" width="540" height="60" as="geometry" />
        </mxCell>
        <mxCell id="9Qbzj7xQOk-ZIAOEFLsu-3" value="Configuration" style="rounded=0;whiteSpace=wrap;html=1;align=left;spacingLeft=14;fillColor=#dae8fc;strokeColor=#6c8ebf;" vertex="1" parent="1">
          <mxGeometry x="230" y="450" width="540" height="60" as="geometry" />
        </mxCell>
        <mxCell id="9Qbzj7xQOk-ZIAOEFLsu-4" value="Runtime Libraries" style="rounded=0;whiteSpace=wrap;html=1;align=left;spacingLeft=14;fillColor=#d5e8d4;strokeColor=#82b366;" vertex="1" parent="1">
          <mxGeometry x="230" y="520" width="540" height="60" as="geometry" />
        </mxCell>
        <mxCell id="9Qbzj7xQOk-ZIAOEFLsu-6" value="What you want to do&lt;div&gt;(use cases)&lt;/div&gt;" style="rounded=0;whiteSpace=wrap;html=1;fillColor=none;verticalAlign=top;dashed=1;dashPattern=8 8;" vertex="1" parent="1">
          <mxGeometry x="365" y="260" width="120" height="360" as="geometry" />
        </mxCell>
      </root>
    </mxGraphModel>
  </diagram>
  <diagram id="SO0MbRdAikPU8TopPgpa" name="sample-configs">
    <mxGraphModel dx="2069" dy="1961" grid="1" gridSize="10" guides="1" tooltips="1" connect="1" arrows="1" fold="1" page="1" pageScale="1" pageWidth="827" pageHeight="1169" math="0" shadow="0">
      <root>
        <mxCell id="0" />
        <mxCell id="1" parent="0" />
        <mxCell id="FpbwSX7cbqtlmRdAi0SY-21" value="" style="rounded=0;whiteSpace=wrap;html=1;strokeColor=#6c8ebf;" parent="1" vertex="1">
          <mxGeometry x="800" y="185" width="20" height="20" as="geometry" />
        </mxCell>
        <mxCell id="FpbwSX7cbqtlmRdAi0SY-23" value="" style="rounded=0;whiteSpace=wrap;html=1;strokeColor=#6c8ebf;" parent="1" vertex="1">
          <mxGeometry x="800" y="265" width="20" height="20" as="geometry" />
        </mxCell>
        <mxCell id="FpbwSX7cbqtlmRdAi0SY-25" value="" style="rounded=0;whiteSpace=wrap;html=1;strokeColor=#6c8ebf;" parent="1" vertex="1">
          <mxGeometry x="442" y="324" width="20" height="20" as="geometry" />
        </mxCell>
        <mxCell id="FpbwSX7cbqtlmRdAi0SY-17" value="" style="shape=corner;whiteSpace=wrap;html=1;rotation=-180;dx=40;dy=40;fillColor=#dae8fc;strokeColor=#6c8ebf;" parent="1" vertex="1">
          <mxGeometry x="420" y="164" width="420" height="200" as="geometry" />
        </mxCell>
        <mxCell id="FpbwSX7cbqtlmRdAi0SY-14" value="OMAG Server Platform" style="rounded=0;whiteSpace=wrap;html=1;fillColor=#f5f5f5;fontColor=#333333;strokeColor=#666666;verticalAlign=top;align=left;" parent="1" vertex="1">
          <mxGeometry x="-14" y="90" width="800" height="220" as="geometry" />
        </mxCell>
        <mxCell id="FpbwSX7cbqtlmRdAi0SY-1" value="&amp;nbsp; &amp;nbsp; simple-metadata-store" style="rounded=0;whiteSpace=wrap;html=1;fillColor=#fff2cc;strokeColor=#d6b656;align=left;" parent="1" vertex="1">
          <mxGeometry y="210" width="190" height="50" as="geometry" />
        </mxCell>
        <mxCell id="FpbwSX7cbqtlmRdAi0SY-9" style="edgeStyle=orthogonalEdgeStyle;rounded=0;orthogonalLoop=1;jettySize=auto;html=1;exitX=0;exitY=0.5;exitDx=0;exitDy=0;dashed=1;endArrow=none;endFill=0;entryX=1;entryY=0.5;entryDx=0;entryDy=0;fillColor=#ffe6cc;strokeColor=#d79b00;" parent="1" source="FpbwSX7cbqtlmRdAi0SY-2" target="FpbwSX7cbqtlmRdAi0SY-1" edge="1">
          <mxGeometry relative="1" as="geometry" />
        </mxCell>
        <mxCell id="FpbwSX7cbqtlmRdAi0SY-26" style="edgeStyle=orthogonalEdgeStyle;rounded=0;orthogonalLoop=1;jettySize=auto;html=1;exitX=0.75;exitY=1;exitDx=0;exitDy=0;entryX=0.5;entryY=0;entryDx=0;entryDy=0;strokeColor=#6c8ebf;startArrow=none;startFill=0;" parent="1" source="FpbwSX7cbqtlmRdAi0SY-2" target="FpbwSX7cbqtlmRdAi0SY-25" edge="1">
          <mxGeometry relative="1" as="geometry" />
        </mxCell>
        <mxCell id="FpbwSX7cbqtlmRdAi0SY-2" value="active-metadata-store" style="rounded=0;whiteSpace=wrap;html=1;fillColor=#fff2cc;strokeColor=#d6b656;" parent="1" vertex="1">
          <mxGeometry x="310" y="210" width="190" height="50" as="geometry" />
        </mxCell>
        <mxCell id="FpbwSX7cbqtlmRdAi0SY-4" style="edgeStyle=orthogonalEdgeStyle;rounded=0;orthogonalLoop=1;jettySize=auto;html=1;" parent="1" source="FpbwSX7cbqtlmRdAi0SY-3" target="FpbwSX7cbqtlmRdAi0SY-2" edge="1">
          <mxGeometry relative="1" as="geometry" />
        </mxCell>
        <mxCell id="FpbwSX7cbqtlmRdAi0SY-3" value="view-server" style="rounded=0;whiteSpace=wrap;html=1;fillColor=#e1d5e7;strokeColor=#9673a6;" parent="1" vertex="1">
          <mxGeometry x="310" y="90" width="190" height="50" as="geometry" />
        </mxCell>
        <mxCell id="FpbwSX7cbqtlmRdAi0SY-7" style="edgeStyle=orthogonalEdgeStyle;rounded=0;orthogonalLoop=1;jettySize=auto;html=1;exitX=0;exitY=0.5;exitDx=0;exitDy=0;entryX=1;entryY=0.25;entryDx=0;entryDy=0;" parent="1" source="FpbwSX7cbqtlmRdAi0SY-5" target="FpbwSX7cbqtlmRdAi0SY-2" edge="1">
          <mxGeometry relative="1" as="geometry" />
        </mxCell>
        <mxCell id="FpbwSX7cbqtlmRdAi0SY-22" style="edgeStyle=orthogonalEdgeStyle;rounded=0;orthogonalLoop=1;jettySize=auto;html=1;exitX=1;exitY=0.5;exitDx=0;exitDy=0;startArrow=classic;startFill=1;strokeColor=#6c8ebf;endArrow=none;endFill=0;" parent="1" source="FpbwSX7cbqtlmRdAi0SY-5" target="FpbwSX7cbqtlmRdAi0SY-21" edge="1">
          <mxGeometry relative="1" as="geometry" />
        </mxCell>
        <mxCell id="FpbwSX7cbqtlmRdAi0SY-5" value="integration-daemon" style="rounded=0;whiteSpace=wrap;html=1;fillColor=#d5e8d4;strokeColor=#82b366;" parent="1" vertex="1">
          <mxGeometry x="580" y="170" width="190" height="50" as="geometry" />
        </mxCell>
        <mxCell id="FpbwSX7cbqtlmRdAi0SY-8" style="edgeStyle=orthogonalEdgeStyle;rounded=0;orthogonalLoop=1;jettySize=auto;html=1;exitX=0;exitY=0.5;exitDx=0;exitDy=0;entryX=1;entryY=0.75;entryDx=0;entryDy=0;" parent="1" source="FpbwSX7cbqtlmRdAi0SY-6" target="FpbwSX7cbqtlmRdAi0SY-2" edge="1">
          <mxGeometry relative="1" as="geometry" />
        </mxCell>
        <mxCell id="FpbwSX7cbqtlmRdAi0SY-24" style="edgeStyle=orthogonalEdgeStyle;rounded=0;orthogonalLoop=1;jettySize=auto;html=1;exitX=1;exitY=0.5;exitDx=0;exitDy=0;entryX=0;entryY=0.5;entryDx=0;entryDy=0;startArrow=classic;startFill=1;strokeColor=#6c8ebf;endArrow=none;endFill=0;" parent="1" source="FpbwSX7cbqtlmRdAi0SY-6" target="FpbwSX7cbqtlmRdAi0SY-23" edge="1">
          <mxGeometry relative="1" as="geometry" />
        </mxCell>
        <mxCell id="FpbwSX7cbqtlmRdAi0SY-6" value="engine-host" style="rounded=0;whiteSpace=wrap;html=1;fillColor=#d5e8d4;strokeColor=#82b366;" parent="1" vertex="1">
          <mxGeometry x="580" y="250" width="190" height="50" as="geometry" />
        </mxCell>
        <mxCell id="FpbwSX7cbqtlmRdAi0SY-10" value="optional&lt;div&gt;cohort link&lt;/div&gt;" style="text;html=1;align=center;verticalAlign=middle;resizable=0;points=[];autosize=1;strokeColor=none;fillColor=none;" parent="1" vertex="1">
          <mxGeometry x="210" y="197" width="80" height="40" as="geometry" />
        </mxCell>
        <mxCell id="FpbwSX7cbqtlmRdAi0SY-11" value="XTDB Metadata&lt;div&gt;Repository&lt;/div&gt;" style="shape=cylinder3;whiteSpace=wrap;html=1;boundedLbl=1;backgroundOutline=1;size=7;fillColor=#fff2cc;strokeColor=#d6b656;" parent="1" vertex="1">
          <mxGeometry x="327" y="330" width="60" height="80" as="geometry" />
        </mxCell>
        <mxCell id="FpbwSX7cbqtlmRdAi0SY-12" style="edgeStyle=orthogonalEdgeStyle;rounded=0;orthogonalLoop=1;jettySize=auto;html=1;exitX=0.25;exitY=1;exitDx=0;exitDy=0;entryX=0.5;entryY=0;entryDx=0;entryDy=0;entryPerimeter=0;endArrow=none;endFill=0;fillColor=#fff2cc;strokeColor=#d6b656;" parent="1" source="FpbwSX7cbqtlmRdAi0SY-2" target="FpbwSX7cbqtlmRdAi0SY-11" edge="1">
          <mxGeometry relative="1" as="geometry" />
        </mxCell>
        <mxCell id="FpbwSX7cbqtlmRdAi0SY-13" value="In Memory Repository" style="shape=cylinder3;whiteSpace=wrap;html=1;boundedLbl=1;backgroundOutline=1;size=5;fillColor=#fff2cc;strokeColor=#d6b656;" parent="1" vertex="1">
          <mxGeometry x="140" y="230" width="60" height="50" as="geometry" />
        </mxCell>
        <mxCell id="FpbwSX7cbqtlmRdAi0SY-15" value="REST API" style="text;html=1;align=center;verticalAlign=middle;resizable=0;points=[];autosize=1;strokeColor=none;fillColor=none;" parent="1" vertex="1">
          <mxGeometry x="400" y="164" width="80" height="30" as="geometry" />
        </mxCell>
        <mxCell id="FpbwSX7cbqtlmRdAi0SY-18" value="Apache Kafka Event Broker" style="text;html=1;align=center;verticalAlign=middle;resizable=0;points=[];autosize=1;strokeColor=none;fillColor=none;rotation=0;" parent="1" vertex="1">
          <mxGeometry x="570" y="329" width="170" height="30" as="geometry" />
        </mxCell>
        <mxCell id="FpbwSX7cbqtlmRdAi0SY-28" value="REST API" style="text;html=1;align=center;verticalAlign=middle;resizable=0;points=[];autosize=1;strokeColor=none;fillColor=none;" parent="1" vertex="1">
          <mxGeometry x="530" y="220" width="80" height="30" as="geometry" />
        </mxCell>
        <mxCell id="FpbwSX7cbqtlmRdAi0SY-30" style="edgeStyle=orthogonalEdgeStyle;rounded=0;orthogonalLoop=1;jettySize=auto;html=1;" parent="1" source="FpbwSX7cbqtlmRdAi0SY-29" target="FpbwSX7cbqtlmRdAi0SY-3" edge="1">
          <mxGeometry relative="1" as="geometry" />
        </mxCell>
        <mxCell id="FpbwSX7cbqtlmRdAi0SY-33" style="edgeStyle=orthogonalEdgeStyle;rounded=0;orthogonalLoop=1;jettySize=auto;html=1;exitX=0;exitY=0.5;exitDx=0;exitDy=0;entryX=0.25;entryY=0;entryDx=0;entryDy=0;" parent="1" source="FpbwSX7cbqtlmRdAi0SY-29" target="FpbwSX7cbqtlmRdAi0SY-14" edge="1">
          <mxGeometry relative="1" as="geometry" />
        </mxCell>
        <mxCell id="FpbwSX7cbqtlmRdAi0SY-29" value="External program or User Interface" style="rounded=0;whiteSpace=wrap;html=1;" parent="1" vertex="1">
          <mxGeometry x="345" y="-30" width="120" height="60" as="geometry" />
        </mxCell>
        <mxCell id="FpbwSX7cbqtlmRdAi0SY-31" value="Open Metadata and&lt;div&gt;Governance Requests&lt;/div&gt;" style="text;html=1;align=center;verticalAlign=middle;resizable=0;points=[];autosize=1;strokeColor=none;fillColor=none;" parent="1" vertex="1">
          <mxGeometry x="480" y="40" width="140" height="40" as="geometry" />
        </mxCell>
        <mxCell id="FpbwSX7cbqtlmRdAi0SY-32" value="REST API" style="text;html=1;align=center;verticalAlign=middle;resizable=0;points=[];autosize=1;strokeColor=none;fillColor=none;" parent="1" vertex="1">
          <mxGeometry x="400" y="50" width="80" height="30" as="geometry" />
        </mxCell>
        <mxCell id="FpbwSX7cbqtlmRdAi0SY-34" value="REST API" style="text;html=1;align=center;verticalAlign=middle;resizable=0;points=[];autosize=1;strokeColor=none;fillColor=none;" parent="1" vertex="1">
          <mxGeometry x="190" y="45" width="80" height="30" as="geometry" />
        </mxCell>
        <mxCell id="FpbwSX7cbqtlmRdAi0SY-35" value="Operational&lt;div&gt;Requests&lt;/div&gt;" style="text;html=1;align=center;verticalAlign=middle;resizable=0;points=[];autosize=1;strokeColor=none;fillColor=none;" parent="1" vertex="1">
          <mxGeometry x="90" y="40" width="90" height="40" as="geometry" />
        </mxCell>
      </root>
    </mxGraphModel>
  </diagram>
</mxfile>
